<?xml version="1.0" standalone="no"?>
<!DOCTYPE svg PUBLIC "-//W3C//DTD SVG 20010904//EN"
 "http://www.w3.org/TR/2001/REC-SVG-20010904/DTD/svg10.dtd">
<svg version="1.0" xmlns="http://www.w3.org/2000/svg"
 width="692.000000pt" height="503.000000pt" viewBox="0 0 692.000000 503.000000"
 preserveAspectRatio="xMidYMid meet">

<g transform="translate(0.000000,503.000000) scale(0.100000,-0.100000)"
fill="#000000" stroke="none">
<path d="M3190 5020 c-228 -14 -380 -90 -588 -297 l-133 -132 -48 34 c-65 47
-160 90 -256 116 -118 32 -374 33 -532 1 -165 -33 -378 -104 -449 -150 -153
-99 -260 -305 -294 -562 -5 -41 -10 -82 -10 -91 0 -13 -14 -18 -56 -24 -264
-33 -394 -194 -394 -489 l0 -106 -40 0 c-55 0 -106 -28 -166 -91 -96 -103
-184 -281 -209 -427 -62 -356 83 -631 424 -801 95 -48 232 -95 326 -112 l64
-12 -6 -136 c-9 -215 18 -372 88 -518 48 -101 131 -193 220 -246 216 -128 557
-133 927 -15 l93 29 63 -59 c222 -207 512 -256 812 -136 l62 25 95 -35 c230
-86 398 -119 602 -119 317 1 595 109 812 316 l78 75 68 -35 c100 -50 259 -100
361 -114 142 -18 251 -1 385 63 69 33 100 56 165 122 45 44 98 111 119 147
l38 66 103 11 c275 30 426 159 482 411 13 57 16 106 12 215 l-5 141 77 52
c100 69 239 199 296 278 58 82 109 194 124 273 18 91 8 230 -24 321 -48 137
-115 240 -245 373 l-84 88 32 63 c47 93 59 178 37 258 -40 145 -177 275 -386
366 l-75 32 -7 51 c-19 122 -118 288 -257 430 -75 75 -96 91 -164 119 -284
117 -580 105 -888 -36 l-75 -34 -75 40 c-190 103 -380 91 -514 -30 -51 -47
-75 -55 -75 -25 0 17 -101 112 -163 155 -69 47 -180 97 -279 125 -84 24 -255
48 -322 44 -17 0 -83 -4 -146 -8z"/>
<path d="M1108 736 c-165 -44 -217 -228 -98 -347 108 -108 282 -81 352 56 82
158 -76 339 -254 291z"/>
<path d="M831 242 c-100 -54 -84 -200 24 -230 99 -28 188 86 137 177 -19 36
-72 71 -107 71 -11 0 -36 -8 -54 -18z"/>
</g>
</svg>
