<?xml version="1.0" standalone="no"?>
<!DOCTYPE svg PUBLIC "-//W3C//DTD SVG 20010904//EN"
 "http://www.w3.org/TR/2001/REC-SVG-20010904/DTD/svg10.dtd">
<svg version="1.0" xmlns="http://www.w3.org/2000/svg"
 width="642.000000pt" height="225.000000pt" viewBox="0 0 642.000000 225.000000"
 preserveAspectRatio="xMidYMid meet">

<g transform="translate(0.000000,225.000000) scale(0.100000,-0.100000)"
fill="#000000" stroke="none">
<path d="M4960 2085 c-26 -32 13 -81 48 -59 34 22 22 74 -18 74 -10 0 -23 -7
-30 -15z"/>
<path d="M5319 2067 c-103 -29 -191 -105 -236 -203 l-24 -54 -2160 0 -2159 0
0 -260 0 -260 -32 0 c-18 0 -51 -9 -73 -19 -142 -66 -169 -255 -51 -359 l38
-33 -17 -47 c-39 -112 -27 -250 30 -347 36 -60 115 -132 183 -163 49 -23 70
-27 152 -27 82 0 103 4 153 27 31 15 81 50 110 77 l54 51 948 0 947 0 40 -45
c24 -27 65 -57 106 -77 60 -30 75 -33 157 -33 79 0 97 3 150 29 33 17 81 52
107 78 l47 48 840 0 841 0 0 264 c0 256 1 265 20 271 65 20 130 124 130 205 0
49 -29 122 -62 157 l-20 21 33 17 c19 10 48 28 66 41 31 23 32 23 38 4 12 -38
63 -70 112 -70 38 0 50 5 79 34 29 29 34 41 34 81 0 40 -5 52 -34 81 -26 26
-42 34 -70 34 -35 0 -35 1 -28 33 4 17 7 66 6 109 0 65 -5 86 -32 141 -60 121
-171 195 -305 203 -42 2 -91 -1 -118 -9z"/>
<path d="M4729 2041 c-20 -20 -29 -39 -29 -61 0 -43 47 -90 90 -90 43 0 90 47
90 90 0 43 -47 90 -90 90 -22 0 -41 -9 -61 -29z"/>
<path d="M5876 1874 c-9 -8 -16 -22 -16 -29 0 -18 27 -45 45 -45 18 0 45 27
45 45 0 18 -27 45 -45 45 -7 0 -21 -7 -29 -16z"/>
<path d="M465 1465 c-16 -15 -25 -36 -25 -55 0 -19 9 -40 25 -55 49 -50 135
-15 135 55 0 41 -39 80 -80 80 -19 0 -40 -9 -55 -25z"/>
<path d="M5640 920 c-40 -40 -11 -110 45 -110 32 0 65 33 65 65 0 32 -33 65
-65 65 -14 0 -34 -9 -45 -20z"/>
</g>
</svg>
