<?xml version="1.0" encoding="UTF-8"?>
<svg viewBox="0 0 703.64 77" xmlns="http://www.w3.org/2000/svg">
<g fill="#fff">
<polygon points="0.411 77 0.411 45.125 2.277 45.125 2.277 73.576 46.186 44.937 0 16.4 14.739 0 16.109 1.233 2.859 15.989 49.644 44.885"/>
<polygon points="6.411 77 6.411 45.125 8.277 45.125 8.277 73.576 52.186 44.937 6 16.4 20.739 0 22.109 1.233 8.859 15.989 55.644 44.885"/>
<polygon points="12.411 77 12.411 45.125 14.277 45.125 14.277 73.576 58.186 44.937 12 16.4 26.739 0 28.109 1.233 14.859 15.989 61.644 44.885"/>
<polygon points="18.411 77 18.411 45.125 20.277 45.125 20.277 73.576 64.186 44.937 18 16.4 32.739 0 34.109 1.233 20.859 15.989 67.644 44.885"/>
<polygon points="24.411 77 24.411 45.125 26.277 45.125 26.277 73.576 70.186 44.937 24 16.4 38.739 0 40.109 1.233 26.859 15.989 73.644 44.885"/>
<polygon points="30.411 77 30.411 45.125 32.277 45.125 32.277 73.576 76.186 44.937 30 16.4 44.739 0 46.109 1.233 32.859 15.989 79.644 44.885"/>
<polygon points="36.411 77 36.411 45.125 38.277 45.125 38.277 73.576 82.186 44.937 36 16.4 50.739 0 52.109 1.233 38.859 15.989 85.644 44.885"/>
<polygon points="42.411 77 42.411 45.125 44.277 45.125 44.277 73.576 88.186 44.937 42 16.4 56.739 0 58.109 1.233 44.859 15.989 91.644 44.885"/>
<polygon points="48.411 77 48.411 45.125 50.277 45.125 50.277 73.576 94.186 44.937 48 16.4 62.739 0 64.109 1.233 50.859 15.989 97.644 44.885"/>
<polygon points="54.411 77 54.411 45.125 56.277 45.125 56.277 73.576 100.19 44.937 54 16.4 68.739 0 70.109 1.233 56.859 15.989 103.64 44.885"/>
<polygon points="60.411 77 60.411 45.125 62.277 45.125 62.277 73.576 106.19 44.937 60 16.4 74.739 0 76.109 1.233 62.859 15.989 109.64 44.885"/>
<polygon points="66.411 77 66.411 45.125 68.277 45.125 68.277 73.576 112.19 44.937 66 16.4 80.739 0 82.109 1.233 68.859 15.989 115.64 44.885"/>
<polygon points="72.411 77 72.411 45.125 74.277 45.125 74.277 73.576 118.19 44.937 72 16.4 86.739 0 88.109 1.233 74.859 15.989 121.64 44.885"/>
<polygon points="78.411 77 78.411 45.125 80.277 45.125 80.277 73.576 124.19 44.937 78 16.4 92.739 0 94.109 1.233 80.859 15.989 127.64 44.885"/>
<polygon points="84.411 77 84.411 45.125 86.277 45.125 86.277 73.576 130.19 44.937 84 16.4 98.739 0 100.11 1.233 86.859 15.989 133.64 44.885"/>
<polygon points="90.411 77 90.411 45.125 92.277 45.125 92.277 73.576 136.19 44.937 90 16.4 104.74 0 106.11 1.233 92.859 15.989 139.64 44.885"/>
<polygon points="96.411 77 96.411 45.125 98.277 45.125 98.277 73.576 142.19 44.937 96 16.4 110.74 0 112.11 1.233 98.859 15.989 145.64 44.885"/>
<polygon points="102.41 77 102.41 45.125 104.28 45.125 104.28 73.576 148.19 44.937 102 16.4 116.74 0 118.11 1.233 104.86 15.989 151.64 44.885"/>
<polygon points="108.41 77 108.41 45.125 110.28 45.125 110.28 73.576 154.19 44.937 108 16.4 122.74 0 124.11 1.233 110.86 15.989 157.64 44.885"/>
<polygon points="114.41 77 114.41 45.125 116.28 45.125 116.28 73.576 160.19 44.937 114 16.4 128.74 0 130.11 1.233 116.86 15.989 163.64 44.885"/>
<polygon points="120.41 77 120.41 45.125 122.28 45.125 122.28 73.576 166.19 44.937 120 16.4 134.74 0 136.11 1.233 122.86 15.989 169.64 44.885"/>
<polygon points="126.41 77 126.41 45.125 128.28 45.125 128.28 73.576 172.19 44.937 126 16.4 140.74 0 142.11 1.233 128.86 15.989 175.64 44.885"/>
<polygon points="132.41 77 132.41 45.125 134.28 45.125 134.28 73.576 178.19 44.937 132 16.4 146.74 0 148.11 1.233 134.86 15.989 181.64 44.885"/>
<polygon points="138.41 77 138.41 45.125 140.28 45.125 140.28 73.576 184.19 44.937 138 16.4 152.74 0 154.11 1.233 140.86 15.989 187.64 44.885"/>
<polygon points="144.41 77 144.41 45.125 146.28 45.125 146.28 73.576 190.19 44.937 144 16.4 158.74 0 160.11 1.233 146.86 15.989 193.64 44.885"/>
<polygon points="150.41 77 150.41 45.125 152.28 45.125 152.28 73.576 196.19 44.937 150 16.4 164.74 0 166.11 1.233 152.86 15.989 199.64 44.885"/>
<polygon points="156.41 77 156.41 45.125 158.28 45.125 158.28 73.576 202.19 44.937 156 16.4 170.74 0 172.11 1.233 158.86 15.989 205.64 44.885"/>
<polygon points="162.41 77 162.41 45.125 164.28 45.125 164.28 73.576 208.19 44.937 162 16.4 176.74 0 178.11 1.233 164.86 15.989 211.64 44.885"/>
<polygon points="168.41 77 168.41 45.125 170.28 45.125 170.28 73.576 214.19 44.937 168 16.4 182.74 0 184.11 1.233 170.86 15.989 217.64 44.885"/>
<polygon points="174.41 77 174.41 45.125 176.28 45.125 176.28 73.576 220.19 44.937 174 16.4 188.74 0 190.11 1.233 176.86 15.989 223.64 44.885"/>
<polygon points="180.41 77 180.41 45.125 182.28 45.125 182.28 73.576 226.19 44.937 180 16.4 194.74 0 196.11 1.233 182.86 15.989 229.64 44.885"/>
<polygon points="186.41 77 186.41 45.125 188.28 45.125 188.28 73.576 232.19 44.937 186 16.4 200.74 0 202.11 1.233 188.86 15.989 235.64 44.885"/>
<polygon points="192.41 77 192.41 45.125 194.28 45.125 194.28 73.576 238.19 44.937 192 16.4 206.74 0 208.11 1.233 194.86 15.989 241.64 44.885"/>
<polygon points="198.41 77 198.41 45.125 200.28 45.125 200.28 73.576 244.19 44.937 198 16.4 212.74 0 214.11 1.233 200.86 15.989 247.64 44.885"/>
<polygon points="204.41 77 204.41 45.125 206.28 45.125 206.28 73.576 250.19 44.937 204 16.4 218.74 0 220.11 1.233 206.86 15.989 253.64 44.885"/>
<polygon points="210.41 77 210.41 45.125 212.28 45.125 212.28 73.576 256.19 44.937 210 16.4 224.74 0 226.11 1.233 212.86 15.989 259.64 44.885"/>
<polygon points="216.41 77 216.41 45.125 218.28 45.125 218.28 73.576 262.19 44.937 216 16.4 230.74 0 232.11 1.233 218.86 15.989 265.64 44.885"/>
<polygon points="222.41 77 222.41 45.125 224.28 45.125 224.28 73.576 268.19 44.937 222 16.4 236.74 0 238.11 1.233 224.86 15.989 271.64 44.885"/>
<polygon points="228.41 77 228.41 45.125 230.28 45.125 230.28 73.576 274.19 44.937 228 16.4 242.74 0 244.11 1.233 230.86 15.989 277.64 44.885"/>
<polygon points="234.41 77 234.41 45.125 236.28 45.125 236.28 73.576 280.19 44.937 234 16.4 248.74 0 250.11 1.233 236.86 15.989 283.64 44.885"/>
<polygon points="240.41 77 240.41 45.125 242.28 45.125 242.28 73.576 286.19 44.937 240 16.4 254.74 0 256.11 1.233 242.86 15.989 289.64 44.885"/>
<polygon points="246.41 77 246.41 45.125 248.28 45.125 248.28 73.576 292.19 44.937 246 16.4 260.74 0 262.11 1.233 248.86 15.989 295.64 44.885"/>
<polygon points="252.41 77 252.41 45.125 254.28 45.125 254.28 73.576 298.19 44.937 252 16.4 266.74 0 268.11 1.233 254.86 15.989 301.64 44.885"/>
<polygon points="258.41 77 258.41 45.125 260.28 45.125 260.28 73.576 304.19 44.937 258 16.4 272.74 0 274.11 1.233 260.86 15.989 307.64 44.885"/>
<polygon points="264.41 77 264.41 45.125 266.28 45.125 266.28 73.576 310.19 44.937 264 16.4 278.74 0 280.11 1.233 266.86 15.989 313.64 44.885"/>
<polygon points="270.41 77 270.41 45.125 272.28 45.125 272.28 73.576 316.19 44.937 270 16.4 284.74 0 286.11 1.233 272.86 15.989 319.64 44.885"/>
<polygon points="276.41 77 276.41 45.125 278.28 45.125 278.28 73.576 322.19 44.937 276 16.4 290.74 0 292.11 1.233 278.86 15.989 325.64 44.885"/>
<polygon points="282.41 77 282.41 45.125 284.28 45.125 284.28 73.576 328.19 44.937 282 16.4 296.74 0 298.11 1.233 284.86 15.989 331.64 44.885"/>
<polygon points="288.41 77 288.41 45.125 290.28 45.125 290.28 73.576 334.19 44.937 288 16.4 302.74 0 304.11 1.233 290.86 15.989 337.64 44.885"/>
<polygon points="294.41 77 294.41 45.125 296.28 45.125 296.28 73.576 340.19 44.937 294 16.4 308.74 0 310.11 1.233 296.86 15.989 343.64 44.885"/>
<polygon points="300.41 77 300.41 45.125 302.28 45.125 302.28 73.576 346.19 44.937 300 16.4 314.74 0 316.11 1.233 302.86 15.989 349.64 44.885"/>
<polygon points="306.41 77 306.41 45.125 308.28 45.125 308.28 73.576 352.19 44.937 306 16.4 320.74 0 322.11 1.233 308.86 15.989 355.64 44.885"/>
<polygon points="312.41 77 312.41 45.125 314.28 45.125 314.28 73.576 358.19 44.937 312 16.4 326.74 0 328.11 1.233 314.86 15.989 361.64 44.885"/>
<polygon points="318.41 77 318.41 45.125 320.28 45.125 320.28 73.576 364.19 44.937 318 16.4 332.74 0 334.11 1.233 320.86 15.989 367.64 44.885"/>
<polygon points="324.41 77 324.41 45.125 326.28 45.125 326.28 73.576 370.19 44.937 324 16.4 338.74 0 340.11 1.233 326.86 15.989 373.64 44.885"/>
<polygon points="330.41 77 330.41 45.125 332.28 45.125 332.28 73.576 376.19 44.937 330 16.4 344.74 0 346.11 1.233 332.86 15.989 379.64 44.885"/>
<polygon points="336.41 77 336.41 45.125 338.28 45.125 338.28 73.576 382.19 44.937 336 16.4 350.74 0 352.11 1.233 338.86 15.989 385.64 44.885"/>
<polygon points="342.41 77 342.41 45.125 344.28 45.125 344.28 73.576 388.19 44.937 342 16.4 356.74 0 358.11 1.233 344.86 15.989 391.64 44.885"/>
<polygon points="348.41 77 348.41 45.125 350.28 45.125 350.28 73.576 394.19 44.937 348 16.4 362.74 0 364.11 1.233 350.86 15.989 397.64 44.885"/>
<polygon points="354.41 77 354.41 45.125 356.28 45.125 356.28 73.576 400.19 44.937 354 16.4 368.74 0 370.11 1.233 356.86 15.989 403.64 44.885"/>
<polygon points="360.41 77 360.41 45.125 362.28 45.125 362.28 73.576 406.19 44.937 360 16.4 374.74 0 376.11 1.233 362.86 15.989 409.64 44.885"/>
<polygon points="366.41 77 366.41 45.125 368.28 45.125 368.28 73.576 412.19 44.937 366 16.4 380.74 0 382.11 1.233 368.86 15.989 415.64 44.885"/>
<polygon points="372.41 77 372.41 45.125 374.28 45.125 374.28 73.576 418.19 44.937 372 16.4 386.74 0 388.11 1.233 374.86 15.989 421.64 44.885"/>
<polygon points="378.41 77 378.41 45.125 380.28 45.125 380.28 73.576 424.19 44.937 378 16.4 392.74 0 394.11 1.233 380.86 15.989 427.64 44.885"/>
<polygon points="384.41 77 384.41 45.125 386.28 45.125 386.28 73.576 430.19 44.937 384 16.4 398.74 0 400.11 1.233 386.86 15.989 433.64 44.885"/>
<polygon points="390.41 77 390.41 45.125 392.28 45.125 392.28 73.576 436.19 44.937 390 16.4 404.74 0 406.11 1.233 392.86 15.989 439.64 44.885"/>
<polygon points="396.41 77 396.41 45.125 398.28 45.125 398.28 73.576 442.19 44.937 396 16.4 410.74 0 412.11 1.233 398.86 15.989 445.64 44.885"/>
<polygon points="402.41 77 402.41 45.125 404.28 45.125 404.28 73.576 448.19 44.937 402 16.4 416.74 0 418.11 1.233 404.86 15.989 451.64 44.885"/>
<polygon points="408.41 77 408.41 45.125 410.28 45.125 410.28 73.576 454.19 44.937 408 16.4 422.74 0 424.11 1.233 410.86 15.989 457.64 44.885"/>
<polygon points="414.41 77 414.41 45.125 416.28 45.125 416.28 73.576 460.19 44.937 414 16.4 428.74 0 430.11 1.233 416.86 15.989 463.64 44.885"/>
<polygon points="420.41 77 420.41 45.125 422.28 45.125 422.28 73.576 466.19 44.937 420 16.4 434.74 0 436.11 1.233 422.86 15.989 469.64 44.885"/>
<polygon points="426.41 77 426.41 45.125 428.28 45.125 428.28 73.576 472.19 44.937 426 16.4 440.74 0 442.11 1.233 428.86 15.989 475.64 44.885"/>
<polygon points="432.41 77 432.41 45.125 434.28 45.125 434.28 73.576 478.19 44.937 432 16.4 446.74 0 448.11 1.233 434.86 15.989 481.64 44.885"/>
<polygon points="438.41 77 438.41 45.125 440.28 45.125 440.28 73.576 484.19 44.937 438 16.4 452.74 0 454.11 1.233 440.86 15.989 487.64 44.885"/>
<polygon points="444.41 77 444.41 45.125 446.28 45.125 446.28 73.576 490.19 44.937 444 16.4 458.74 0 460.11 1.233 446.86 15.989 493.64 44.885"/>
<polygon points="450.41 77 450.41 45.125 452.28 45.125 452.28 73.576 496.19 44.937 450 16.4 464.74 0 466.11 1.233 452.86 15.989 499.64 44.885"/>
<polygon points="456.41 77 456.41 45.125 458.28 45.125 458.28 73.576 502.19 44.937 456 16.4 470.74 0 472.11 1.233 458.86 15.989 505.64 44.885"/>
<polygon points="462.41 77 462.41 45.125 464.28 45.125 464.28 73.576 508.19 44.937 462 16.4 476.74 0 478.11 1.233 464.86 15.989 511.64 44.885"/>
<polygon points="468.41 77 468.41 45.125 470.28 45.125 470.28 73.576 514.19 44.937 468 16.4 482.74 0 484.11 1.233 470.86 15.989 517.64 44.885"/>
<polygon points="474.41 77 474.41 45.125 476.28 45.125 476.28 73.576 520.19 44.937 474 16.4 488.74 0 490.11 1.233 476.86 15.989 523.64 44.885"/>
<polygon points="480.41 77 480.41 45.125 482.28 45.125 482.28 73.576 526.19 44.937 480 16.4 494.74 0 496.11 1.233 482.86 15.989 529.64 44.885"/>
<polygon points="486.41 77 486.41 45.125 488.28 45.125 488.28 73.576 532.19 44.937 486 16.4 500.74 0 502.11 1.233 488.86 15.989 535.64 44.885"/>
<polygon points="492.41 77 492.41 45.125 494.28 45.125 494.28 73.576 538.19 44.937 492 16.4 506.74 0 508.11 1.233 494.86 15.989 541.64 44.885"/>
<polygon points="498.41 77 498.41 45.125 500.28 45.125 500.28 73.576 544.19 44.937 498 16.4 512.74 0 514.11 1.233 500.86 15.989 547.64 44.885"/>
<polygon points="504.41 77 504.41 45.125 506.28 45.125 506.28 73.576 550.19 44.937 504 16.4 518.74 0 520.11 1.233 506.86 15.989 553.64 44.885"/>
<polygon points="510.41 77 510.41 45.125 512.28 45.125 512.28 73.576 556.19 44.937 510 16.4 524.74 0 526.11 1.233 512.86 15.989 559.64 44.885"/>
<polygon points="516.41 77 516.41 45.125 518.28 45.125 518.28 73.576 562.19 44.937 516 16.4 530.74 0 532.11 1.233 518.86 15.989 565.64 44.885"/>
<polygon points="522.41 77 522.41 45.125 524.28 45.125 524.28 73.576 568.19 44.937 522 16.4 536.74 0 538.11 1.233 524.86 15.989 571.64 44.885"/>
<polygon points="528.41 77 528.41 45.125 530.28 45.125 530.28 73.576 574.19 44.937 528 16.4 542.74 0 544.11 1.233 530.86 15.989 577.64 44.885"/>
<polygon points="534.41 77 534.41 45.125 536.28 45.125 536.28 73.576 580.19 44.937 534 16.4 548.74 0 550.11 1.233 536.86 15.989 583.64 44.885"/>
<polygon points="540.41 77 540.41 45.125 542.28 45.125 542.28 73.576 586.19 44.937 540 16.4 554.74 0 556.11 1.233 542.86 15.989 589.64 44.885"/>
<polygon points="546.41 77 546.41 45.125 548.28 45.125 548.28 73.576 592.19 44.937 546 16.4 560.74 0 562.11 1.233 548.86 15.989 595.64 44.885"/>
<polygon points="552.41 77 552.41 45.125 554.28 45.125 554.28 73.576 598.19 44.937 552 16.4 566.74 0 568.11 1.233 554.86 15.989 601.64 44.885"/>
<polygon points="558.41 77 558.41 45.125 560.28 45.125 560.28 73.576 604.19 44.937 558 16.4 572.74 0 574.11 1.233 560.86 15.989 607.64 44.885"/>
<polygon points="564.41 77 564.41 45.125 566.28 45.125 566.28 73.576 610.19 44.937 564 16.4 578.74 0 580.11 1.233 566.86 15.989 613.64 44.885"/>
<polygon points="570.41 77 570.41 45.125 572.28 45.125 572.28 73.576 616.19 44.937 570 16.4 584.74 0 586.11 1.233 572.86 15.989 619.64 44.885"/>
<polygon points="576.41 77 576.41 45.125 578.28 45.125 578.28 73.576 622.19 44.937 576 16.4 590.74 0 592.11 1.233 578.86 15.989 625.64 44.885"/>
<polygon points="582.41 77 582.41 45.125 584.28 45.125 584.28 73.576 628.19 44.937 582 16.4 596.74 0 598.11 1.233 584.86 15.989 631.64 44.885"/>
<polygon points="588.41 77 588.41 45.125 590.28 45.125 590.28 73.576 634.19 44.937 588 16.4 602.74 0 604.11 1.233 590.86 15.989 637.64 44.885"/>
<polygon points="594.41 77 594.41 45.125 596.28 45.125 596.28 73.576 640.19 44.937 594 16.4 608.74 0 610.11 1.233 596.86 15.989 643.64 44.885"/>
<polygon points="600.41 77 600.41 45.125 602.28 45.125 602.28 73.576 646.19 44.937 600 16.4 614.74 0 616.11 1.233 602.86 15.989 649.64 44.885"/>
<polygon points="606.41 77 606.41 45.125 608.28 45.125 608.28 73.576 652.19 44.937 606 16.4 620.74 0 622.11 1.233 608.86 15.989 655.64 44.885"/>
<polygon points="612.41 77 612.41 45.125 614.28 45.125 614.28 73.576 658.19 44.937 612 16.4 626.74 0 628.11 1.233 614.86 15.989 661.64 44.885"/>
<polygon points="618.41 77 618.41 45.125 620.28 45.125 620.28 73.576 664.19 44.937 618 16.4 632.74 0 634.11 1.233 620.86 15.989 667.64 44.885"/>
<polygon points="624.41 77 624.41 45.125 626.28 45.125 626.28 73.576 670.19 44.937 624 16.4 638.74 0 640.11 1.233 626.86 15.989 673.64 44.885"/>
<polygon points="630.41 77 630.41 45.125 632.28 45.125 632.28 73.576 676.19 44.937 630 16.4 644.74 0 646.11 1.233 632.86 15.989 679.64 44.885"/>
<polygon points="636.41 77 636.41 45.125 638.28 45.125 638.28 73.576 682.19 44.937 636 16.4 650.74 0 652.11 1.233 638.86 15.989 685.64 44.885"/>
<polygon points="642.41 77 642.41 45.125 644.28 45.125 644.28 73.576 688.19 44.937 642 16.4 656.74 0 658.11 1.233 644.86 15.989 691.64 44.885"/>
<polygon points="648.41 77 648.41 45.125 650.28 45.125 650.28 73.576 694.19 44.937 648 16.4 662.74 0 664.11 1.233 650.86 15.989 697.64 44.885"/>
<polygon points="654.41 77 654.41 45.125 656.28 45.125 656.28 73.576 700.19 44.937 654 16.4 668.74 0 670.11 1.233 656.86 15.989 703.64 44.885"/>
</g>
</svg>
